<svg xmlns="http://www.w3.org/2000/svg" width="20" height="19.997" viewBox="0 0 20 19.997">
  <g id="stack" transform="translate(-1.997 -2)">
    <path id="Path_11341" data-name="Path 11341" d="M21.768,30.779,19.8,29.652l-7.123,4.067a1.361,1.361,0,0,1-1.353,0L4.2,29.652,2.225,30.779a.454.454,0,0,0,0,.789l9.544,5.454a.454.454,0,0,0,.451,0l9.544-5.454a.454.454,0,0,0,0-.789Z" transform="translate(0 -15.085)"/>
    <path id="Path_11342" data-name="Path 11342" d="M21.768,21.779,19.8,20.652l-7.123,4.067a1.361,1.361,0,0,1-1.353,0L4.2,20.652,2.225,21.779a.454.454,0,0,0,0,.789l9.544,5.454a.454.454,0,0,0,.451,0l9.544-5.454a.454.454,0,0,0,0-.789Z" transform="translate(0 -10.175)"/>
    <path id="Path_11343" data-name="Path 11343" d="M21.772,7.514,12.228,2.06a.454.454,0,0,0-.451,0L2.233,7.514a.454.454,0,0,0,0,.789l9.544,5.454a.454.454,0,0,0,.451,0L21.772,8.3a.454.454,0,0,0,0-.789Z" transform="translate(-0.004)"/>
  </g>
</svg>
