<svg id="Page-1" xmlns="http://www.w3.org/2000/svg" width="21" height="12.871" viewBox="0 0 21 12.871">
  <g id="walletconnect-circle-white">
    <path id="WalletConnect" d="M107.3,162.515a8.9,8.9,0,0,1,12.4,0l.412.4a.423.423,0,0,1,0,.607l-1.41,1.38a.223.223,0,0,1-.31,0l-.567-.555a6.21,6.21,0,0,0-8.652,0l-.607.595a.223.223,0,0,1-.31,0l-1.41-1.38a.423.423,0,0,1,0-.607l.452-.443Zm15.318,2.855,1.255,1.229a.423.423,0,0,1,0,.607l-5.658,5.54a.445.445,0,0,1-.62,0l-4.016-3.932a.111.111,0,0,0-.155,0l-4.016,3.932a.445.445,0,0,1-.62,0l-5.658-5.54a.423.423,0,0,1,0-.607l1.255-1.229a.445.445,0,0,1,.62,0l4.016,3.932a.111.111,0,0,0,.155,0l4.016-3.932a.445.445,0,0,1,.62,0l4.016,3.932a.111.111,0,0,0,.155,0L122,165.37a.445.445,0,0,1,.62,0Z" transform="translate(-103 -160.001)" fill="#3b99fc"/>
  </g>
</svg>
