<svg xmlns="http://www.w3.org/2000/svg" width="20.115" height="20.999" viewBox="0 0 20.115 20.999">
  <g id="eventstore" transform="translate(-1.012 -0.001)">
    <path id="Path_29096" data-name="Path 29096" d="M5.631,2.987A9.546,9.546,0,0,1,6.8,2.4a8.983,8.983,0,0,1,2.656-.669l.986,1.115L9.985,4a7.665,7.665,0,0,0-2.519.971l-.171.1L7.14,3.561,5.631,2.983v0ZM5.2,3.259l1.565.6.164,1.5A6.393,6.393,0,0,0,4.951,7.747q-.066.129-.122.262l-1.1-1.338-1.8.38a9.059,9.059,0,0,1,1.805-2.59,9.194,9.194,0,0,1,1.459-1.2H5.2ZM15.511,13.8a5.187,5.187,0,0,0,.42-.866l1.7,2.056,2.848-.613A11.187,11.187,0,0,1,19.9,15.7a9.911,9.911,0,0,1-2.317,2.94,9.238,9.238,0,0,1-3.3,1.844c-.024.008-.049.014-.073.023L12.1,18.721l.55-2.428.045-.018a5.907,5.907,0,0,0,2.821-2.481v.01Zm3.566-9.6c.174.239.336.49.493.747a11.075,11.075,0,0,1,1.347,3.5,11.4,11.4,0,0,1,.1,3.72,11.366,11.366,0,0,1-.406,1.752l-2.848.612-1.706-2.062a5.136,5.136,0,0,0,.052-2.37,5.049,5.049,0,0,0-1.272-2.494l3.07-.367L19.054,4.2h.023ZM1.74,7.511l1.837-.388,1.081,1.32A5.773,5.773,0,0,0,4.409,11.4a5.811,5.811,0,0,0,.184.848l-1.942-.442L1.26,13.452a10.02,10.02,0,0,1,.458-5.909l.014-.034.008,0ZM4.751,12.7a6.513,6.513,0,0,0,1.233,2.026,5.613,5.613,0,0,0,1.368,1.154l-1.925,1.1.1,2.506a9.451,9.451,0,0,1-1.75-1.4,9.57,9.57,0,0,1-2.047-3.15,9.831,9.831,0,0,1-.328-.984l1.431-1.679,1.942.445L4.751,12.7Zm3.02,3.41a5.952,5.952,0,0,0,1.328.472,5.653,5.653,0,0,0,3.088-.123l-.547,2.412,2.089,1.767a11.019,11.019,0,0,1-3.2.351,10.067,10.067,0,0,1-4.577-1.256l-.1-2.522,1.925-1.1ZM18.781,3.819l-1.149,3.05-3.162.381a2.651,2.651,0,0,0-.286-.223,6.812,6.812,0,0,0-3.5-1.378c-.3-.025-.591-.025-.866-.025l1.1-2.823L8.531.083A17.038,17.038,0,0,1,10.683,0c.429.013.853.045,1.277.1a13.255,13.255,0,0,1,1.763.367,9.993,9.993,0,0,1,5.059,3.348Z" fill="#fff"/>
  </g>
</svg>
