<svg xmlns="http://www.w3.org/2000/svg" width="17.248" height="21" viewBox="0 0 17.248 21">
  <g id="badge" transform="translate(-29.979 -11.955)">
    <path id="Path_29112" data-name="Path 29112" d="M111.749,12l1.194,2.249,2.555.31-1.875,1.689.375,2.5-2.249-1.406L109.5,18.748l.375-2.5L108,14.56l2.624-.31Z" transform="translate(-68.271 -0.039)" fill="#fff"/>
    <path id="Path_29113" data-name="Path 29113" d="M43.266,20.4l-1.453-.373a5.244,5.244,0,1,1-3.77-6.4l.374-1.452a6.741,6.741,0,0,0-6.186,11.552v9.23l4.5-3,4.5,3V23.739A6.72,6.72,0,0,0,43.266,20.4Zm-3.537,9.758-3-2-3,2V24.745a6.691,6.691,0,0,0,6,0Z" transform="translate(0 0)" fill="#fff"/>
  </g>
</svg>
