<svg id="money-off" xmlns="http://www.w3.org/2000/svg" width="18.539" height="21" viewBox="0 0 18.539 21">
  <path id="Path_29154" data-name="Path 29154" d="M9.844,4.539a4.406,4.406,0,0,0-1.75.328l-1.75-1.7a7.211,7.211,0,0,1,1.75-.656V0h3.5V2.57A4.825,4.825,0,0,1,14.3,4.211,4.917,4.917,0,0,1,15.367,7H12.742Q12.633,4.539,9.844,4.539ZM1.477,1.258,18.539,18.32,17.063,19.8l-2.625-2.625a5.442,5.442,0,0,1-2.844,1.313V21h-3.5V18.484a6.078,6.078,0,0,1-3.008-1.531A4.083,4.083,0,0,1,3.828,14H6.344q.273,2.461,3.5,2.461a3.246,3.246,0,0,0,2.844-1.094l-4.1-4.047Q3.992,9.953,3.992,6.727L0,2.734Z" fill="#fff"/>
</svg>