<svg xmlns="http://www.w3.org/2000/svg" width="25.663" height="28.496" viewBox="0 0 25.663 28.496">
  <g id="filters-2_broken" transform="translate(-6.5 -4.5)">
    <path id="Path_29093" data-name="Path 29093" d="M8,8.833h4.249m9.915,0h8.5m-8.5,0a2.833,2.833,0,1,0-2.833,2.833A2.833,2.833,0,0,0,22.164,8.833ZM16.5,18.748H25m0,0a2.833,2.833,0,1,0,2.833-2.833A2.833,2.833,0,0,0,25,18.748Zm-17,0h4.249m5.666,9.915H30.663M10.833,25.83A2.833,2.833,0,1,1,8,28.663,2.833,2.833,0,0,1,10.833,25.83Z" fill="none" stroke="#000" stroke-linecap="round" stroke-width="3"/>
  </g>
</svg>
