<svg xmlns="http://www.w3.org/2000/svg" width="18.96" height="21" viewBox="0 0 18.96 21">
  <g id="monkeytie" transform="translate(-9.322)">
    <path id="Path_29155" data-name="Path 29155" d="M18.8,0a9.037,9.037,0,0,0-5.5,1.861.413.413,0,0,0-.081.576.4.4,0,0,0,.572.081,8.229,8.229,0,0,1,10.01,0,.4.4,0,0,0,.571-.081.415.415,0,0,0-.081-.576A9.033,9.033,0,0,0,18.805,0Zm.026,2.721a10.454,10.454,0,0,0-5.22,1.407A12.061,12.061,0,0,0,9.384,8.282a.412.412,0,0,0,.7.435,11.214,11.214,0,0,1,3.932-3.876,9.638,9.638,0,0,1,4.813-1.3,9.531,9.531,0,0,1,4.753,1.279,11.274,11.274,0,0,1,3.94,3.894.409.409,0,1,0,.693-.434v0a12.018,12.018,0,0,0-4.23-4.174,10.321,10.321,0,0,0-5.156-1.387ZM18.8,5.394a8.111,8.111,0,0,0-3.246.639A8.806,8.806,0,0,0,12,8.957a19.651,19.651,0,0,0-2.389,4.464.415.415,0,0,0,.229.536.391.391,0,0,0,.525-.234A15.721,15.721,0,0,1,13.6,8.351,7.245,7.245,0,0,1,15.876,6.79,7.363,7.363,0,0,1,18.8,6.223a8.321,8.321,0,0,1,2.608.391,6.427,6.427,0,0,1,2.966,1.969,8.077,8.077,0,0,1,1.677,3.579,10.876,10.876,0,0,1,.223,2.209,8.054,8.054,0,0,1-.149,1.607.409.409,0,1,0,.8.171,8.44,8.44,0,0,0,.166-1.779,11.945,11.945,0,0,0-.238-2.382,9.761,9.761,0,0,0-1.056-2.8A7.345,7.345,0,0,0,22.918,6.36a8.607,8.607,0,0,0-4.113-.966Zm.089,2.692a6.571,6.571,0,0,0-1.937.262,4.652,4.652,0,0,0-1.269.613,5.733,5.733,0,0,0-1.564,1.668,22.007,22.007,0,0,0-1.486,3.044,15.146,15.146,0,0,1-.694,1.423,5.966,5.966,0,0,1-.844,1.15.411.411,0,0,0,.582.579v0A8.394,8.394,0,0,0,13.212,14.4c.3-.665.581-1.348.881-1.992a11.547,11.547,0,0,1,.74-1.371,4.725,4.725,0,0,1,1.519-1.526,4.651,4.651,0,0,1,2.452-.6,5.093,5.093,0,0,1,2.244.471,4.259,4.259,0,0,1,1.212.878A5.166,5.166,0,0,1,23.417,12.2a7.551,7.551,0,0,1,.383,2.429,8.937,8.937,0,0,1-.372,2.533,7.76,7.76,0,0,1-1.059,2.243.413.413,0,0,0,.107.569.407.407,0,0,0,.565-.1A8.651,8.651,0,0,0,24.215,17.4a9.909,9.909,0,0,0,.4-2.762,8.54,8.54,0,0,0-.337-2.409,5.938,5.938,0,0,0-1.862-2.943,5.047,5.047,0,0,0-1.6-.882,6.584,6.584,0,0,0-1.929-.319Zm-.082,2.7a2.8,2.8,0,0,0-1.738.639A3.248,3.248,0,0,0,16,12.978c-.1.313-.162.655-.248,1.04a7.789,7.789,0,0,1-.684,1.968,8.115,8.115,0,0,1-1.943,2.38.415.415,0,0,0-.046.578.407.407,0,0,0,.578.044A9.557,9.557,0,0,0,15.269,17.2a7.636,7.636,0,0,0,1.108-2.367c.1-.344.164-.66.222-.932q.067-.344.166-.68a2.431,2.431,0,0,1,.807-1.164,1.981,1.981,0,0,1,1.229-.457,1.874,1.874,0,0,1,.786.186,2.518,2.518,0,0,1,.98.872,2.259,2.259,0,0,1,.394,1.227,10.068,10.068,0,0,1-.347,2.83,8.186,8.186,0,0,1-2.1,3.579.416.416,0,0,0,0,.582.4.4,0,0,0,.579,0A9.02,9.02,0,0,0,21.4,16.943a10.92,10.92,0,0,0,.383-3.054,2.949,2.949,0,0,0-.249-1.161,3.363,3.363,0,0,0-1.089-1.371,2.734,2.734,0,0,0-1.639-.574Zm-.013,2.7a.41.41,0,0,0-.408.411h0a6.563,6.563,0,0,1-.214,1.726,6.4,6.4,0,0,1-1.018,2.1,17.841,17.841,0,0,1-1.745,2.02.415.415,0,0,0,.013.584.41.41,0,0,0,.579-.014A15.2,15.2,0,0,0,18.3,17.454a6.528,6.528,0,0,0,.665-1.635,7.4,7.4,0,0,0,.24-1.929.411.411,0,0,0-.41-.411Z" transform="translate(0 0)" fill="#fff"/>
  </g>
</svg>