<svg xmlns="http://www.w3.org/2000/svg" width="21" height="17.548" viewBox="0 0 21 17.548">
  <g id="leaf" transform="translate(0 -15.78)">
    <path id="Path_29108" data-name="Path 29108" d="M2.3,28.746a4.065,4.065,0,0,1-.341-.967c-.626-4.377,2.945-7.926,6.186-9.274s6.973.8,9.186-1.505a2.737,2.737,0,0,1,1.956-1.22.9.9,0,0,1,.791.472c2.766,5.665-1.186,12.381-5.648,14.768a10.852,10.852,0,0,1-8.5.758c-.763-.181-1.374-.979-2.165-.989-.545.306-1,1.3-1.368,1.851a1.142,1.142,0,0,1-1.906.291c-1.8-1.775,1.942-3.35,1.813-4.186Zm2.406-.725a.939.939,0,0,0,1.242-.088,10.987,10.987,0,0,1,9.087-4.044.889.889,0,0,0,.923-.835.9.9,0,0,0-.857-.923A12.749,12.749,0,0,0,4.622,26.768a.89.89,0,0,0,.088,1.253Z" transform="translate(0)" fill="#fff"/>
  </g>
</svg>
