<svg xmlns="http://www.w3.org/2000/svg" width="17.007" height="21" viewBox="0 0 17.007 21">
  <g id="handshake" transform="translate(-18.256 -0.004)">
    <path id="Path_29120" data-name="Path 29120" d="M18.258,19.392a1.516,1.516,0,0,0,1.418,1.568c1.146.048,2.3.019,3.443.019a1.622,1.622,0,0,0,1.54-1.71c-.025-1.068.016-2.139.025-3.209l.039-4.365c0-.267.04-.317.293-.385a3.712,3.712,0,0,1,1.761-.059A2.447,2.447,0,0,1,28.756,13.4c.058.543.061,1.093.068,1.64.022,1.435.033,2.87.047,4.306A1.6,1.6,0,0,0,30.519,21q1.537.008,3.074.006a1.592,1.592,0,0,0,1.661-1.648q.009-4.424.009-8.849c0-.046,0-.092,0-.137a.873.873,0,0,0-.423-.733,2.308,2.308,0,0,0-.608-.255A6.549,6.549,0,0,0,31.7,9.275c-.65.1-1.292.256-1.936.387a8.49,8.49,0,0,1-2.567.156A6.335,6.335,0,0,1,24.221,8.61q-.642-.448-1.307-.861a3.7,3.7,0,0,0-1.776-.476,7.107,7.107,0,0,0-2.006.1.989.989,0,0,0-.845.942,3.009,3.009,0,0,0-.018.332m6.42-5.411a3.216,3.216,0,1,0-3.229,3.2,3.216,3.216,0,0,0,3.229-3.2ZM31.98,1.649a3.215,3.215,0,1,0,3.2,3.224,3.214,3.214,0,0,0-3.2-3.224Z" transform="translate(0 0)" fill="#fff"/>
  </g>
</svg>
