<svg xmlns="http://www.w3.org/2000/svg" width="21" height="22.618" viewBox="0 0 21 22.618">
  <g id="dice" transform="translate(-18.24 -12.149)">
    <path id="Path_29109" data-name="Path 29109" d="M45.04,17.066l-7.709-4.48a3.238,3.238,0,0,0-3.247,0l-7.709,4.48a.2.2,0,0,0,0,.348l9.232,5.431a.2.2,0,0,0,.2,0l9.23-5.431a.2.2,0,0,0,0-.348Zm-9.333,1.142c-.669,0-1.212-.361-1.212-.808s.543-.808,1.212-.808,1.212.361,1.212.808S36.376,18.208,35.707,18.208Z" transform="translate(-6.967)" fill="#fff"/>
    <path id="Path_29110" data-name="Path 29110" d="M27.831,67.364l-9.288-5.418a.2.2,0,0,0-.3.175V70.9a2.423,2.423,0,0,0,1.2,2.089L27.629,77.9a.2.2,0,0,0,.3-.175V67.539A.2.2,0,0,0,27.831,67.364ZM20.663,72.27c-.446,0-.808-.543-.808-1.212s.361-1.212.808-1.212.808.543.808,1.212S21.109,72.27,20.663,72.27Zm4.846-1.615c-.446,0-.808-.543-.808-1.212s.361-1.212.808-1.212.808.543.808,1.212S25.955,70.655,25.509,70.655Z" transform="translate(0 -43.158)" fill="#fff"/>
    <path id="Path_29111" data-name="Path 29111" d="M112.749,61.957l-9.288,5.454a.2.2,0,0,0-.1.174V77.732a.2.2,0,0,0,.3.175L111.848,73a2.423,2.423,0,0,0,1.2-2.088V62.133a.2.2,0,0,0-.3-.176Zm-6.966,13.15c-.446,0-.808-.543-.808-1.212s.361-1.212.808-1.212.808.543.808,1.212S106.229,75.107,105.783,75.107Zm0-4.442c-.446,0-.808-.543-.808-1.212s.361-1.212.808-1.212.808.543.808,1.212S106.229,70.665,105.783,70.665Zm4.846,1.615c-.446,0-.808-.543-.808-1.212s.361-1.212.808-1.212.808.543.808,1.212S111.075,72.28,110.629,72.28Zm0-4.442c-.446,0-.808-.543-.808-1.212s.361-1.212.808-1.212.808.543.808,1.212S111.075,67.838,110.629,67.838Z" transform="translate(-73.812 -43.168)" fill="#fff"/>
  </g>
</svg>
