<svg xmlns="http://www.w3.org/2000/svg" width="18" height="18" viewBox="0 0 18 18">
  <path id="cancel-circle" d="M18,9.036a8.816,8.816,0,0,1-1.206,4.518,8.936,8.936,0,0,1-3.276,3.276A8.816,8.816,0,0,1,9,18.036,8.816,8.816,0,0,1,4.482,16.83a8.936,8.936,0,0,1-3.276-3.276A8.816,8.816,0,0,1,0,9.036,8.816,8.816,0,0,1,1.206,4.518,8.936,8.936,0,0,1,4.482,1.242,8.816,8.816,0,0,1,9,.036a8.816,8.816,0,0,1,4.518,1.206,8.936,8.936,0,0,1,3.276,3.276A8.816,8.816,0,0,1,18,9.036Zm-6.1,4.176,1.278-1.278-2.9-2.9,2.9-2.9L11.9,4.86,9,7.758,6.1,4.86,4.824,6.138l2.9,2.9-2.9,2.9L6.1,13.212l2.9-2.9Z" transform="translate(0 -0.036)" fill="#d61515"/>
</svg>
