<svg xmlns="http://www.w3.org/2000/svg" width="18" height="23.648" viewBox="0 0 18 23.648">
  <path id="lock" d="M15.783,8.313A2.254,2.254,0,0,1,18,10.53v11.3a2.253,2.253,0,0,1-2.217,2.216H2.27a2.191,2.191,0,0,1-1.61-.66A2.13,2.13,0,0,1,0,21.826V10.53A2.13,2.13,0,0,1,.66,8.973a2.191,2.191,0,0,1,1.61-.66H3.379V6.043A5.437,5.437,0,0,1,5.041,2.057,5.434,5.434,0,0,1,9.026.395a5.354,5.354,0,0,1,3.959,1.663,5.476,5.476,0,0,1,1.636,3.986v2.27h1.161ZM9,18.448a2.158,2.158,0,0,0,1.583-.66,2.294,2.294,0,0,0,0-3.22,2.229,2.229,0,0,0-3.167,0,2.293,2.293,0,0,0,0,3.22A2.159,2.159,0,0,0,9,18.448Zm3.51-10.135V6.043a3.351,3.351,0,0,0-1.029-2.455A3.382,3.382,0,0,0,9,2.559,3.3,3.3,0,0,0,6.545,3.588a3.394,3.394,0,0,0-1,2.455v2.27H12.51Z" transform="translate(0 -0.395)"/>
</svg>
