<svg id="icons8-discord-new" xmlns="http://www.w3.org/2000/svg" width="23.428" height="17.026" viewBox="0 0 23.428 17.026">
  <path id="Path_1642" data-name="Path 1642" d="M22.268,9.507a3.013,3.013,0,0,0-1.4-1.14A18.434,18.434,0,0,0,17.6,7.346a1.527,1.527,0,0,0-1.657.822l-.08.156a17.056,17.056,0,0,0-2.321-.083,17.39,17.39,0,0,0-2.346.083l-.079-.156a1.527,1.527,0,0,0-1.657-.821A18.338,18.338,0,0,0,6.183,8.367a3.015,3.015,0,0,0-1.4,1.14A17.407,17.407,0,0,0,1.927,21.39a.5.5,0,0,0,.233.374,24.068,24.068,0,0,0,5,2.494,1.526,1.526,0,0,0,1.777-.621l.693-1.062a11.252,11.252,0,0,1-1.607-.749.505.505,0,0,1,.5-.877,10.089,10.089,0,0,0,10.047,0,.505.505,0,0,1,.5.877,11.18,11.18,0,0,1-1.663.77l.713,1.062a1.543,1.543,0,0,0,1.277.686,1.5,1.5,0,0,0,.487-.081,24.052,24.052,0,0,0,5.009-2.5.505.505,0,0,0,.233-.374A17.4,17.4,0,0,0,22.268,9.507ZM10.3,18.264a2.079,2.079,0,0,1-1.774-2.271A2.079,2.079,0,0,1,10.3,13.722a2.079,2.079,0,0,1,1.774,2.271A2.079,2.079,0,0,1,10.3,18.264Zm6.565-.013a2.084,2.084,0,0,1-1.757-2.285,2.084,2.084,0,0,1,1.757-2.285,2.084,2.084,0,0,1,1.757,2.285A2.084,2.084,0,0,1,16.864,18.251Z" transform="translate(-1.812 -7.318)"/>
</svg>
