<svg id="logo-github" xmlns="http://www.w3.org/2000/svg" width="16.909" height="16.909" viewBox="0 0 16.909 16.909">
  <path id="Path_1646" data-name="Path 1646" d="M40.455,32A8.566,8.566,0,0,0,32,40.67a8.653,8.653,0,0,0,5.782,8.224.663.663,0,0,0,.143.015.409.409,0,0,0,.434-.43c0-.208-.008-.751-.011-1.476a3.865,3.865,0,0,1-.853.1,1.964,1.964,0,0,1-2-1.264,2.29,2.29,0,0,0-.94-1.268c-.736-.517,0-.532.053-.532h0a1.817,1.817,0,0,1,1.295.9,1.66,1.66,0,0,0,1.495.947,2.376,2.376,0,0,0,.966-.226,1.873,1.873,0,0,1,.536-1.159c-1.876-.219-3.85-.962-3.85-4.284a3.393,3.393,0,0,1,.868-2.325,3.191,3.191,0,0,1,.083-2.295.7.7,0,0,1,.189-.019,4.019,4.019,0,0,1,2.136.91,7.859,7.859,0,0,1,4.235,0,4.019,4.019,0,0,1,2.136-.91.7.7,0,0,1,.189.019,3.191,3.191,0,0,1,.083,2.295,3.407,3.407,0,0,1,.868,2.325c0,3.329-1.978,4.061-3.861,4.276a2.1,2.1,0,0,1,.574,1.6c0,1.159-.011,2.095-.011,2.378a.407.407,0,0,0,.43.434.731.731,0,0,0,.151-.015A8.7,8.7,0,0,0,40.455,32Z" transform="translate(-32 -32)"/>
</svg>
