<svg id="Group_12374" data-name="Group 12374" xmlns="http://www.w3.org/2000/svg" xmlns:xlink="http://www.w3.org/1999/xlink" width="17.812" height="19.463" viewBox="0 0 17.812 19.463">

  <g id="Group_12373" data-name="Group 12373">
    <path id="Path_1794" data-name="Path 1794" d="M5.167,15.476S1.781,14.51.7,12.3A8.176,8.176,0,0,1,.115,7.62S4.1,8.98,4.987,10.7a9.644,9.644,0,0,1,.625,4.442l-.139.333.141.278a9.117,9.117,0,0,1,1.414-2.11c.777-.777,1.11-1.138,1.11-1.138L8,11.687S5.806,10.313,5.251,8.925a8.76,8.76,0,0,1-.028-4.636S7.869,5.982,8.3,7.232a8.959,8.959,0,0,1,0,4.331l.083.611a16.822,16.822,0,0,0,1.638-2.013c.472-.777.861-1.5.861-1.5l-.194-.68A8.044,8.044,0,0,1,8.374,6.191C7.485,4.858,8.1,2.249,8.1,2.249s2.318,1.55,2.665,2.443a5.2,5.2,0,0,1,.25,3.026l-.069.264.122.375s.378-.888.572-1.555a5.759,5.759,0,0,0,.208-1.319,4.27,4.27,0,0,1,.079-3.6C12.441.976,14.592,0,14.592,0A9.7,9.7,0,0,1,14.2,3.526a5.3,5.3,0,0,1-2.013,2.1,8.807,8.807,0,0,1-.167,1.332c-.111.361-.4,1.027-.4,1.027s.43-.014.541-.222a3.742,3.742,0,0,1,2.353-2.674,7.9,7.9,0,0,1,3.3-.3S17.321,7,16.16,7.773a4.6,4.6,0,0,1-3.928.236l-.6.236-.305.583a11.37,11.37,0,0,1-1.235,2.179c-.583.68-1.1,1.3-1.1,1.3h.736a9.8,9.8,0,0,1,2.235-2.184c1-.541,3.248-.43,4.095,1.013,0,0-.028,2.04-2.957,2.235A10.617,10.617,0,0,1,9.873,12.6s-.967-.19-1.152.069c-.246.344-1.013,1.291-1.013,1.291L6.569,15.532l-.305.527h.5a7.158,7.158,0,0,1,4.717-1.767,13.334,13.334,0,0,1,5.068,2.017s-3.65,2.5-5.122,2.415a6.427,6.427,0,0,1-4.8-2.346l-.486-.014a6.818,6.818,0,0,0-.777,2.623s-.375,1.069-.638,0a4.832,4.832,0,0,1,.722-2.734Z" transform="translate(0)"/>
  </g>
</svg>
