<svg id="icons8-telegram-app" xmlns="http://www.w3.org/2000/svg" width="18.715" height="17.026" viewBox="0 0 18.715 17.026">
  <path id="Path_1644" data-name="Path 1644" d="M21.361,6.236a1.3,1.3,0,0,0-1.339-.1h0C19.476,6.354,4.586,12.74,3.98,13c-.11.038-1.073.4-.974,1.2a1.448,1.448,0,0,0,.957,1.055l3.785,1.3c.251.836,1.177,3.92,1.382,4.579.128.411.336.951.7,1.062a.87.87,0,0,0,.845-.151l2.314-2.147,3.736,2.914.089.053a1.8,1.8,0,0,0,.729.169,1.348,1.348,0,0,0,.515-.1,1.562,1.562,0,0,0,.807-.824L21.657,7.6a1.286,1.286,0,0,0-.3-1.363ZM11.087,17.068,9.81,20.474,8.533,16.217l9.79-7.236Z" transform="translate(-2.999 -6.002)"/>
</svg>
