<svg id="logo-twitter" xmlns="http://www.w3.org/2000/svg" width="20.924" height="17.026" viewBox="0 0 20.924 17.026">
  <path id="Path_1645" data-name="Path 1645" d="M41.024,66.017a8.679,8.679,0,0,1-2.465.678,4.308,4.308,0,0,0,1.889-2.377,8.53,8.53,0,0,1-2.727,1.042A4.292,4.292,0,0,0,30.294,68.3a4.2,4.2,0,0,0,.111.98,12.166,12.166,0,0,1-8.85-4.492,4.3,4.3,0,0,0,1.335,5.738,4.193,4.193,0,0,1-1.951-.537v.053a4.3,4.3,0,0,0,3.445,4.212,4.321,4.321,0,0,1-1.131.151,4.05,4.05,0,0,1-.807-.08,4.3,4.3,0,0,0,4.013,2.984,8.607,8.607,0,0,1-5.334,1.84,8.7,8.7,0,0,1-1.024-.062,12,12,0,0,0,6.571,1.942A12.141,12.141,0,0,0,38.9,68.8c0-.186,0-.372-.013-.554A8.739,8.739,0,0,0,41.024,66.017Z" transform="translate(-20.1 -64)"/>
</svg>
