<svg id="icons8-discord-new" xmlns="http://www.w3.org/2000/svg" width="46.621" height="33.882" viewBox="0 0 46.621 33.882">
  <path id="Path_1655" data-name="Path 1655" d="M42.52,11.674a6,6,0,0,0-2.783-2.268,36.683,36.683,0,0,0-6.515-2.031,3.039,3.039,0,0,0-3.3,1.635l-.159.31a33.942,33.942,0,0,0-4.618-.165,34.606,34.606,0,0,0-4.668.165l-.158-.31a3.039,3.039,0,0,0-3.3-1.634,36.492,36.492,0,0,0-6.515,2.031,6,6,0,0,0-2.783,2.268A34.64,34.64,0,0,0,2.04,35.321a1,1,0,0,0,.464.745,47.894,47.894,0,0,0,9.945,4.963,3.036,3.036,0,0,0,3.536-1.236l1.379-2.113a22.392,22.392,0,0,1-3.2-1.491,1.005,1.005,0,0,1,1-1.746,20.078,20.078,0,0,0,19.993,0,1.005,1.005,0,0,1,1,1.746,22.248,22.248,0,0,1-3.309,1.532l1.419,2.114A3.07,3.07,0,0,0,36.8,41.2a2.992,2.992,0,0,0,.968-.162,47.864,47.864,0,0,0,9.968-4.971,1,1,0,0,0,.464-.745A34.633,34.633,0,0,0,42.52,11.674ZM18.7,29.1c-1.937,0-3.53-2.04-3.53-4.52s1.594-4.52,3.53-4.52,3.53,2.04,3.53,4.52S20.637,29.1,18.7,29.1Zm13.064-.026c-1.918,0-3.5-2.052-3.5-4.547s1.579-4.547,3.5-4.547,3.5,2.052,3.5,4.547-1.579,4.547-3.5,4.547Z" transform="translate(-1.812 -7.318)" fill="#fff"/>
</svg>
