  <svg xmlns="http://www.w3.org/2000/svg" width="29.25" height="33.751" viewBox="0 0 29.25 33.751">
  <g id="documents-sharp" transform="translate(-3.375 -1.125)">
    <path id="Path_1695" data-name="Path 1695" d="M21.652,17.438l-6.464-6.573v6.151a.422.422,0,0,0,.422.422Z" fill="#fff"/>
    <path id="Path_1696" data-name="Path 1696" d="M12.938,18.844V10.125H4.219a.844.844,0,0,0-.844.844V34.032a.844.844,0,0,0,.844.844H21.657a.844.844,0,0,0,.844-.844V19.688h-8.72a.844.844,0,0,1-.844-.844Z" fill="#fff"/>
    <path id="Path_1697" data-name="Path 1697" d="M25.734,8.438h6.043L25.313,1.865V8.016a.422.422,0,0,0,.422.422Z" fill="#fff"/>
    <path id="Path_1698" data-name="Path 1698" d="M23.906,10.688a.844.844,0,0,1-.844-.844V1.125H12.094a.844.844,0,0,0-.844.844V7.875h2.962a2.869,2.869,0,0,1,2.03.854l7.675,7.805a2.891,2.891,0,0,1,.832,2.039v9.552h7.032a.844.844,0,0,0,.844-.844V10.688Z" fill="#fff"/>
  </g>
</svg>
