<svg xmlns="http://www.w3.org/2000/svg" width="23.537" height="23.537" viewBox="0 0 23.537 23.537">
  <path id="Path_11423" data-name="Path 11423" d="M66.967,65.716h4.763a.85.85,0,0,0,.852-.852v-.012A.85.85,0,0,0,71.729,64H64.852a.85.85,0,0,0-.852.852v6.877a.85.85,0,0,0,.852.852h.012a.85.85,0,0,0,.852-.852V66.967L72.894,74.1a.843.843,0,0,0,.6.245.824.824,0,0,0,.6-.251.851.851,0,0,0,0-1.2ZM86.685,64H79.808a.85.85,0,0,0-.852.852v.012a.85.85,0,0,0,.852.852H84.57l-7.129,7.178a.852.852,0,0,0,1.2,1.207l7.178-7.135v4.763a.85.85,0,0,0,.852.852h.012a.85.85,0,0,0,.852-.852V64.852A.85.85,0,0,0,86.685,64ZM73.494,77.191a.843.843,0,0,0-.6.245L65.716,84.57V79.808a.85.85,0,0,0-.852-.852h-.012a.85.85,0,0,0-.852.852v6.877a.85.85,0,0,0,.852.852h6.877a.85.85,0,0,0,.852-.852v-.012a.85.85,0,0,0-.852-.852H66.967L74.1,78.643a.852.852,0,0,0-.6-1.453Zm13.191,1.765h-.012a.85.85,0,0,0-.852.852V84.57l-7.178-7.129a.843.843,0,0,0-.6-.245.824.824,0,0,0-.6.251.851.851,0,0,0,0,1.2l7.129,7.171H79.808a.85.85,0,0,0-.852.852v.012a.85.85,0,0,0,.852.852h6.877a.85.85,0,0,0,.852-.852V79.808a.85.85,0,0,0-.852-.852Z" transform="translate(-64 -64)" fill="#fff"/>
</svg>
