<svg id="fingerprint-recognition" xmlns="http://www.w3.org/2000/svg" width="21.234" height="24.509" viewBox="0 0 21.234 24.509">
  <path id="Path_11439" data-name="Path 11439" d="M7.64,4.56a.629.629,0,0,1-.376-1.126,12.624,12.624,0,0,1,7.725-2.311,13.482,13.482,0,0,1,7.758,2.14.629.629,0,0,1,.147.874.637.637,0,0,1-.882.139,12.248,12.248,0,0,0-7.022-1.9A11.432,11.432,0,0,0,8.048,4.429a.6.6,0,0,1-.409.131Z" transform="translate(-4.353 -1.115)" fill="#fff"/>
  <path id="Path_11440" data-name="Path 11440" d="M23.968,11.463a.637.637,0,0,1-.515-.269C22.041,9.2,19.518,6.547,13.982,6.547a11.432,11.432,0,0,0-9.5,4.655.629.629,0,0,1-.874.139.621.621,0,0,1-.123-.907A12.689,12.689,0,0,1,13.982,5.3a12,12,0,0,1,10.484,5.177.629.629,0,0,1-.155.874.645.645,0,0,1-.343.115Z" transform="translate(-3.345 -2.261)" fill="#fff"/>
  <path id="Path_11441" data-name="Path 11441" d="M11.307,27.9a.637.637,0,0,1-.588-.4.613.613,0,0,1,.359-.817c3.568-1.372,5.716-4.181,5.716-7.52a2.286,2.286,0,0,0-2.45-2.45c-1.519,0-2.254.817-2.45,2.736A3.487,3.487,0,0,1,8.2,22.578a3.487,3.487,0,0,1-3.527-3.748,9.562,9.562,0,0,1,9.668-9.391,9.8,9.8,0,0,1,9.8,9.741,15.236,15.236,0,0,1-1.135,5.308.637.637,0,0,1-.817.335.621.621,0,0,1-.335-.817,14.085,14.085,0,0,0,1.037-4.826,8.533,8.533,0,0,0-8.549-8.492,8.313,8.313,0,0,0-8.476,8.165,2.262,2.262,0,0,0,2.278,2.5,2.238,2.238,0,0,0,2.45-2.025c.294-2.54,1.543-3.829,3.723-3.829a3.519,3.519,0,0,1,3.691,3.723c0,3.871-2.45,7.12-6.532,8.68a.751.751,0,0,1-.171,0Z" transform="translate(-3.707 -3.397)" fill="#fff"/>
  <path id="Path_11442" data-name="Path 11442" d="M18.543,28.469a.661.661,0,0,1-.425-.163.621.621,0,0,1,0-.882,10.313,10.313,0,0,0,2.89-7.088c0-1.274-.392-5.43-5.471-5.43A5.577,5.577,0,0,0,11.5,16.433a5.038,5.038,0,0,0-1.493,3.641.629.629,0,0,1-.629.621.621.621,0,0,1-.629-.621,6.312,6.312,0,0,1,1.812-4.523,6.81,6.81,0,0,1,4.9-1.894c4.965,0,6.728,3.593,6.728,6.68a11.5,11.5,0,0,1-3.185,7.9.613.613,0,0,1-.465.229Z" transform="translate(-4.828 -4.553)" fill="#fff"/>
  <path id="Path_11443" data-name="Path 11443" d="M9.042,28.686a11.546,11.546,0,0,1-1.274-.073.625.625,0,1,1,.139-1.241,6.128,6.128,0,0,0,4.769-1.078,5.2,5.2,0,0,0,1.731-3.7.613.613,0,0,1,.669-.58.637.637,0,0,1,.588.661,6.442,6.442,0,0,1-2.188,4.589,6.7,6.7,0,0,1-4.434,1.421Z" transform="translate(-4.399 -6.844)" fill="#fff"/>
</svg>
