<svg xmlns="http://www.w3.org/2000/svg" width="15.93" height="18.93" viewBox="0 0 15.93 18.93">
  <path id="Path_11447" data-name="Path 11447" d="M13,17.91v2.02A7.992,7.992,0,0,0,13,4.07V1L8.45,5.55,13,10V6.09a5.993,5.993,0,0,1,0,11.82ZM5.69,16.89,7.1,15.47A6,6,0,0,1,6.09,13H4.07A7.906,7.906,0,0,0,5.69,16.89ZM7.11,8.53,5.7,7.11A7.922,7.922,0,0,0,4.07,11H6.09A5.935,5.935,0,0,1,7.11,8.53ZM11,17.9a5.914,5.914,0,0,1-2.46-1.03L7.1,18.32A7.924,7.924,0,0,0,11,19.93Z" transform="translate(-4.07 -1)" fill="#ebebf2"/>
</svg>
