<svg id="login" xmlns="http://www.w3.org/2000/svg" width="20.174" height="23.536" viewBox="0 0 20.174 23.536">
  <path id="Path_11444" data-name="Path 11444" d="M25.268,25.786H15.181A1.681,1.681,0,0,1,13.5,24.1V21.583h1.681V24.1H25.268V3.931H15.181V6.453H13.5V3.931A1.681,1.681,0,0,1,15.181,2.25H25.268a1.681,1.681,0,0,1,1.681,1.681V24.1A1.681,1.681,0,0,1,25.268,25.786Z" transform="translate(-6.775 -2.25)" fill="#fff"/>
  <path id="Path_11445" data-name="Path 11445" d="M13.4,20.152l3.009-3.018H4.5V15.453H16.411L13.4,12.435l1.185-1.185,5.043,5.043-5.043,5.043Z" transform="translate(-4.5 -4.525)" fill="#fff"/>
</svg>
