<svg id="Twitter_-_Icon_-_White" data-name="Twitter - Icon - White" xmlns="http://www.w3.org/2000/svg" width="46.621" height="38.052" viewBox="0 0 46.621 38.052">
  <path id="Path_1654" data-name="Path 1654" d="M66.721,68.509a19.292,19.292,0,0,1-5.493,1.516,9.622,9.622,0,0,0,4.209-5.311,18.971,18.971,0,0,1-6.076,2.329A9.556,9.556,0,0,0,42.813,73.6a9.42,9.42,0,0,0,.247,2.19A27.08,27.08,0,0,1,23.34,65.754a9.632,9.632,0,0,0,2.974,12.823,9.321,9.321,0,0,1-4.347-1.2V77.5a9.6,9.6,0,0,0,7.676,9.414,9.6,9.6,0,0,1-2.519.337,9,9,0,0,1-1.8-.178,9.584,9.584,0,0,0,8.941,6.669A19.141,19.141,0,0,1,22.382,97.85a19.333,19.333,0,0,1-2.282-.139,26.677,26.677,0,0,0,14.641,4.34c17.615,0,27.238-14.636,27.238-27.33,0-.416-.01-.832-.03-1.239A19.5,19.5,0,0,0,66.721,68.509Z" transform="translate(-20.1 -64)" fill="#fff"/>
</svg>
