<svg width="16" height="16" viewBox="0 0 16 16" fill="none" xmlns="http://www.w3.org/2000/svg">
<g id="lock-keyhole">
<path id="Vector" d="M7.9987 11.3333C8.36689 11.3333 8.66536 11.0349 8.66536 10.6667C8.66536 10.2985 8.36689 10 7.9987 10C7.63051 10 7.33203 10.2985 7.33203 10.6667C7.33203 11.0349 7.63051 11.3333 7.9987 11.3333Z" stroke="#818CA2" stroke-width="1.33333" stroke-linecap="round" stroke-linejoin="round"/>
<path id="Vector_2" d="M12.6667 6.66699H3.33333C2.59695 6.66699 2 7.26395 2 8.00033V13.3337C2 14.07 2.59695 14.667 3.33333 14.667H12.6667C13.403 14.667 14 14.07 14 13.3337V8.00033C14 7.26395 13.403 6.66699 12.6667 6.66699Z" stroke="#818CA2" stroke-width="1.33333" stroke-linecap="round" stroke-linejoin="round"/>
<path id="Vector_3" d="M4.66406 6.66634V4.66634C4.66406 3.78229 5.01525 2.93444 5.64037 2.30932C6.26549 1.6842 7.11334 1.33301 7.9974 1.33301C8.88145 1.33301 9.7293 1.6842 10.3544 2.30932C10.9795 2.93444 11.3307 3.78229 11.3307 4.66634V6.66634" stroke="#818CA2" stroke-width="1.33333" stroke-linecap="round" stroke-linejoin="round"/>
</g>
</svg>
