<svg width="98" height="31" viewBox="0 0 98 31" fill="none" xmlns="http://www.w3.org/2000/svg">
<path d="M46.1992 11.2168V15.0684H42.6875V22.1484H46.1992V26H38.4536V15.0684H30.5V11.2168H38.4536V6.85547H42.6875V11.2168H46.1992Z" fill="#F0F5FF"/>
<path d="M30.436 19.4438V11.2168H34.6699V26H30.436V24.3716C29.3457 25.6885 27.9155 26.3398 26.1313 26.354C24.4888 26.354 23.1719 25.8442 22.1807 24.8247C21.1753 23.8193 20.6797 22.46 20.6797 20.7749V11.2168H24.9136V19.5005C24.9136 21.1572 25.9756 22.2617 27.5615 22.2617C28.4111 22.2617 29.105 21.9927 29.6431 21.4688C30.167 20.9448 30.436 20.2793 30.436 19.4438Z" fill="#F0F5FF"/>
<path d="M4.94287 0.65332H15.8867V4.22168H4.94287V0.65332ZM20.5889 26H15.6611L14.415 22.4883H6.28711L5.04102 26H0.226562L7.74561 5.9917H13.0557L20.5889 26ZM10.3511 10.9478L7.74561 18.3394H12.9565L10.3511 10.9478Z" fill="#F0F5FF"/>
<mask id="mask0_1288_8620" style="mask-type:alpha" maskUnits="userSpaceOnUse" x="44" y="5" width="26" height="22">
<path d="M69.3242 5.50001L59.5318 26.5L44.001 26.4999L44.001 5.49987L69.3242 5.50001Z" fill="#DAE0EE"/>
</mask>
<g mask="url(#mask0_1288_8620)">
<rect x="49.5" y="8" width="32" height="16" rx="8" stroke="#F0F5FF" stroke-width="4"/>
</g>
<mask id="mask1_1288_8620" style="mask-type:alpha" maskUnits="userSpaceOnUse" x="63" y="5" width="25" height="22">
<path d="M63.9453 26.5L73.7512 5.47124L87.501 5.47119V26.5001L63.9453 26.5Z" fill="#DAE0EE"/>
</mask>
<g mask="url(#mask1_1288_8620)">
<rect x="48.55" y="7.05" width="33.9" height="17.9" rx="8.95" stroke="#F0F5FF" stroke-width="2.1"/>
</g>
<path d="M58.5811 29.9021L71.8633 1.41846" stroke="#F0F5FF" stroke-width="2"/>
<path d="M90.9512 25.8418C89.1738 25.8418 87.6836 25.2812 86.4805 24.1738C85.2773 23.0664 84.6758 21.6855 84.6758 20.0449H87.2734C87.2734 21.043 87.6289 21.8633 88.3535 22.5332C89.0781 23.2031 89.9531 23.5449 91.0059 23.5449C92.0312 23.5449 92.8926 23.2441 93.5762 22.6562C94.2461 22.0684 94.5879 21.3438 94.5879 20.4551C94.5879 18.7188 93.1797 17.5156 90.3633 16.8184C86.7812 15.9434 84.9902 14.0566 84.9902 11.1582C84.9902 9.64062 85.5645 8.38281 86.6992 7.35742C87.834 6.3457 89.2422 5.83984 90.9512 5.83984C92.6465 5.83984 94.0684 6.37305 95.2031 7.42578C96.3379 8.47852 96.9121 9.80469 96.9121 11.3906H94.3145C94.3145 10.4609 93.9863 9.68164 93.3438 9.06641C92.7012 8.45117 91.8945 8.13672 90.9238 8.13672C89.9941 8.13672 89.2148 8.41016 88.5723 8.9707C87.9297 9.53125 87.6152 10.2285 87.6152 11.0488C87.6152 12.7031 88.9277 13.8789 91.5664 14.5488C95.3398 15.4785 97.2266 17.3926 97.2266 20.291C97.2266 21.877 96.625 23.2031 95.4355 24.2559C94.2461 25.3086 92.7422 25.8418 90.9512 25.8418Z" fill="#F0F5FF"/>
</svg>
