<svg width="24" height="25" viewBox="0 0 24 25" fill="none" xmlns="http://www.w3.org/2000/svg">
<g id="Check">
<path id="Exclude" fill-rule="evenodd" clip-rule="evenodd" d="M22 12.5C22 18.023 17.523 22.5 12 22.5C6.477 22.5 2 18.023 2 12.5C2 6.977 6.477 2.5 12 2.5C17.523 2.5 22 6.977 22 12.5ZM17.4702 9.97023C17.7299 9.71053 17.7299 9.28947 17.4702 9.02977C17.2105 8.77008 16.7895 8.77008 16.5298 9.02977L11 14.5595L8.47023 12.0298C8.21053 11.7701 7.78947 11.7701 7.52977 12.0298C7.27008 12.2895 7.27008 12.7105 7.52977 12.9702L10.5298 15.9702C10.7895 16.2299 11.2105 16.2299 11.4702 15.9702L17.4702 9.97023Z" fill="#36BFFA"/>
</g>
</svg>
