<svg width="24" height="24" viewBox="0 0 24 24" fill="none" xmlns="http://www.w3.org/2000/svg">
<g id="users-2">
<path id="Vector" d="M14 19C14 17.4087 13.3679 15.8826 12.2426 14.7574C11.1174 13.6321 9.5913 13 8 13C6.4087 13 4.88258 13.6321 3.75736 14.7574C2.63214 15.8826 2 17.4087 2 19" stroke="#576176" stroke-width="2" stroke-linecap="round" stroke-linejoin="round"/>
<path id="Vector_2" d="M8 13C10.2091 13 12 11.2091 12 9C12 6.79086 10.2091 5 8 5C5.79086 5 4 6.79086 4 9C4 11.2091 5.79086 13 8 13Z" stroke="#576176" stroke-width="2" stroke-linecap="round" stroke-linejoin="round"/>
<path id="Vector_3" d="M22 19C22 17.4087 21.3679 15.8826 20.2426 14.7574C19.1174 13.6321 17.5913 13 16 13C17.0609 13 18.0783 12.5786 18.8284 11.8284C19.5786 11.0783 20 10.0609 20 9C20 7.93913 19.5786 6.92172 18.8284 6.17157C18.0783 5.42143 17.0609 5 16 5" stroke="#576176" stroke-width="2" stroke-linecap="round" stroke-linejoin="round"/>
</g>
</svg>
