<svg id="check-circle-fill" xmlns="http://www.w3.org/2000/svg" width="33.167" height="33.167" viewBox="0 0 33.167 33.167">
  <path id="Path_11713" data-name="Path 11713" d="M0,0H33.167V33.167H0Z" fill="none"/>
  <path id="Path_11714" data-name="Path 11714" d="M37.474,24A13.474,13.474,0,1,0,50.948,37.474,13.474,13.474,0,0,0,37.474,24Zm6.413,11.116-7.592,7.255a1.049,1.049,0,0,1-.726.285,1,1,0,0,1-.713-.285l-3.8-3.628a1.036,1.036,0,1,1,1.425-1.5l3.083,2.941,6.892-6.569a1.036,1.036,0,0,1,1.425,1.5Z" transform="translate(-20.891 -20.891)" fill="#66bb6a"/>
</svg>
