<svg xmlns="http://www.w3.org/2000/svg" width="18" height="18" viewBox="0 0 18 18">
  <g id="dashboard" transform="translate(-3.25 -2.25)">
    <path id="Path_1601" data-name="Path 1601" d="M27,23.625h1.286v3.214H27Z" transform="translate(-10.607 -9.161)"/>
    <path id="Path_1602" data-name="Path 1602" d="M22.5,18h1.286v6.429H22.5Z" transform="translate(-8.679 -6.75)"/>
    <path id="Path_1603" data-name="Path 1603" d="M9.964,24.429A3.218,3.218,0,0,1,6.75,21.214H8.036a1.929,1.929,0,1,0,1.929-1.929V18a3.214,3.214,0,0,1,0,6.429Z" transform="translate(-1.929 -6.75)"/>
    <path id="Path_1604" data-name="Path 1604" d="M18.964,2.25H3.536A1.287,1.287,0,0,0,2.25,3.536V18.964A1.287,1.287,0,0,0,3.536,20.25H18.964a1.287,1.287,0,0,0,1.286-1.286V3.536A1.287,1.287,0,0,0,18.964,2.25Zm0,5.786h-9v-4.5h9ZM8.679,3.536v4.5H3.536v-4.5ZM3.536,18.964V9.321H18.964v9.643Z" transform="translate(1)"/>
  </g>
</svg>
