<svg id="organization-solid" xmlns="http://www.w3.org/2000/svg" width="20.267" height="19" viewBox="0 0 20.267 19">
  <path id="Path_1646" data-name="Path 1646" d="M9.213,17.04H19.6v1.951h1.013V16.027h-5.7V14H13.9v2.027H8.2v2.964H9.213Z" transform="translate(-4.273 -7.033)"/>
  <path id="Path_1647" data-name="Path 1647" d="M3.267,23H9.6a1.267,1.267,0,0,1,1.267,1.267v3.8A1.267,1.267,0,0,1,9.6,29.333H3.267A1.267,1.267,0,0,1,2,28.067v-3.8A1.267,1.267,0,0,1,3.267,23Z" transform="translate(-2 -10.333)"/>
  <path id="Path_1648" data-name="Path 1648" d="M21.267,23H27.6a1.267,1.267,0,0,1,1.267,1.267v3.8A1.267,1.267,0,0,1,27.6,29.333H21.267A1.267,1.267,0,0,1,20,28.067v-3.8A1.267,1.267,0,0,1,21.267,23Z" transform="translate(-8.6 -10.333)"/>
  <path id="Path_1649" data-name="Path 1649" d="M12.267,3H18.6a1.267,1.267,0,0,1,1.267,1.267v3.8A1.267,1.267,0,0,1,18.6,9.333H12.267A1.267,1.267,0,0,1,11,8.067v-3.8A1.267,1.267,0,0,1,12.267,3Z" transform="translate(-5.3 -3)"/>
</svg>
