<svg xmlns="http://www.w3.org/2000/svg" xmlns:xlink="http://www.w3.org/1999/xlink" width="23" height="23" viewBox="0 0 23 23">
  <defs>
    <clipPath id="clip-path">
      <rect id="Rectangle_2270" data-name="Rectangle 2270" width="15.779" height="12.657" fill="none"/>
    </clipPath>
  </defs>
  <g id="Group_12471" data-name="Group 12471" transform="translate(-0.5)" opacity="0.599">
    <g id="Ellipse_352" data-name="Ellipse 352" transform="translate(0.5)" fill="#6fa1c3" stroke="#6fa1c3" stroke-width="1">
      <circle cx="11.5" cy="11.5" r="11.5" stroke="none"/>
      <circle cx="11.5" cy="11.5" r="11" fill="none"/>
    </g>
    <g id="Group_12221" data-name="Group 12221" transform="translate(3.563 5.172)">
      <g id="Group_12220" data-name="Group 12220" clip-path="url(#clip-path)">
        <path id="Path_1671" data-name="Path 1671" d="M.017,30.984a8.07,8.07,0,0,0,15.758-.255.737.737,0,0,0-.552-.807.66.66,0,0,0-.808.552,6.687,6.687,0,0,1-13.039.212.665.665,0,0,0-.849-.51.683.683,0,0,0-.51.807" transform="translate(0 -24.529)" fill="#fff" fill-rule="evenodd"/>
        <path id="Path_1672" data-name="Path 1672" d="M19.456,1.359a1.4,1.4,0,0,0,2.8,0,1.4,1.4,0,0,0-2.8,0" transform="translate(-15.957 0)" fill="#fff" fill-rule="evenodd"/>
        <path id="Path_1673" data-name="Path 1673" d="M52.985,0a1.378,1.378,0,0,0-1.4,1.359,1.4,1.4,0,0,0,2.8,0A1.379,1.379,0,0,0,52.985,0" transform="translate(-42.307 0)" fill="#fff" fill-rule="evenodd"/>
      </g>
    </g>
  </g>
</svg>
